<svg xmlns="http://www.w3.org/2000/svg" viewBox="0 0 21.604 22.475"><g data-name="Layer 2" id="Layer_2"><g data-name="Layer 1" id="Layer_1-2"><path d="M7.847,12.38H3.3a.341.341,0,1,1,0-.681H7.847A.341.341,0,0,1,7.847,12.38Zm.341,2.386a.341.341,0,0,0-.341-.341H3.3a.341.341,0,1,0,0,.682H7.847A.341.341,0,0,0,8.188,14.766ZM3.3,17.152a.341.341,0,0,0,0,.681H5.579a.341.341,0,0,0,0-.681Zm5.234,5.323H2.158A2.16,2.16,0,0,1,0,20.317V4.411A2.161,2.161,0,0,1,2.158,2.253H4.246c.71-2.983,3.731-3.025,4.459,0H12.62a.341.341,0,0,1,0,.682H4.812a4.2,4.2,0,0,0,.435,2.5A1.928,1.928,0,1,1,4.785,6a4.744,4.744,0,0,1-.658-3.069H2.158A1.478,1.478,0,0,0,.682,4.411V20.317a1.478,1.478,0,0,0,1.476,1.477H8.537A.341.341,0,0,1,8.537,22.475ZM5.659,5.977a1.126,1.126,0,0,0,1.644,0,1.229,1.229,0,0,0-1.644,0Zm2.014.583a1.779,1.779,0,0,1-2.387,0A1.241,1.241,0,1,0,7.673,6.56ZM4.958,2.253H8.006C7.719,1.3,7.125.662,6.48.662S5.241,1.32,4.958,2.253ZM21.6,8.511V18.5a.341.341,0,0,1-.1.241l-3.636,3.636a.343.343,0,0,1-.241.1H11.248A2.16,2.16,0,0,1,9.09,20.317V8.511A1.983,1.983,0,0,1,9.672,7.1l4.267-4.267a1.993,1.993,0,0,1,2.815,0L21.021,7.1A1.98,1.98,0,0,1,21.6,8.511ZM20.44,18.84H17.968v2.472Zm.482-10.329a1.3,1.3,0,0,0-.383-.926L16.272,3.318a1.311,1.311,0,0,0-1.851,0L10.154,7.585a1.3,1.3,0,0,0-.383.926V20.317a1.479,1.479,0,0,0,1.477,1.477h6.039V18.5a.341.341,0,0,1,.34-.341h3.3Zm-5.575.331a1.931,1.931,0,0,1,0-3.862A1.931,1.931,0,0,1,15.347,8.842Zm0-3.18a1.25,1.25,0,0,0,0,2.5A1.25,1.25,0,0,0,15.347,5.662Zm0,8.763c-1.848,0-1.448-2.192,0-2.169a1.237,1.237,0,0,1,1.152.708.341.341,0,0,0,.446.182c.727-.481-.693-1.542-1.257-1.542-.007-.28.087-.815-.341-.814s-.335.536-.341.816a1.759,1.759,0,0,0,.341,3.5c1.02,0,1.234.59,1.234,1.084a1.164,1.164,0,0,1-1.229,1.085,1.238,1.238,0,0,1-1.152-.708.34.34,0,0,0-.446-.182c-.726.481.689,1.537,1.252,1.54.006.281-.088.817.341.816s.334-.536.341-.815A1.759,1.759,0,0,0,15.344,14.425Z" data-name="price tag" id="price_tag" fill="#91c4ef"/></g></g></svg>